<svg width="85" height="49" viewBox="0 0 85 49" fill="none" xmlns="http://www.w3.org/2000/svg">
<path d="M13.7089 1.10714C10.8532 1.71708 5.50231 3.9628 1.95353 6.0283C0.899985 6.63825 0.567287 7.16502 0.844535 7.77497C0.997022 8.10767 1.05247 8.12153 1.77332 8.05222C2.67438 7.95518 3.35364 7.59476 3.60316 7.06799C3.922 6.41645 9.30062 3.94894 12.6276 2.95084C15.0119 2.21613 16.4398 2.27158 16.8695 3.10333C17.1606 3.67169 17.1329 5.07179 16.7863 6.361C16.4675 7.59476 14.5406 12.0446 12.5583 16.134C11.2968 18.7263 10.9364 19.3224 10.673 19.3224C10.4928 19.3224 9.66104 17.4787 9.10655 15.8429L8.63522 14.4151L8.98178 14.1101C9.39766 13.722 9.41152 13.2368 9.02337 12.8209C8.34411 12.0862 7.48464 12.1139 7.23512 12.8625C6.88856 13.9438 7.47078 16.2311 8.91247 19.3917C9.35607 20.3898 9.73036 21.3463 9.73036 21.5265C9.73036 22.1919 6.63903 27.5983 5.01713 29.7885C3.09025 32.3808 1.69014 34.779 1.69014 35.486C1.69014 35.6523 1.80104 35.9296 1.93967 36.0959C2.1476 36.3455 2.27237 36.4009 2.5912 36.3177C3.21501 36.1652 3.71406 35.5137 5.55776 32.464C7.24898 29.6499 8.42729 28.0696 10.5205 25.8377C11.3384 24.9783 11.5325 24.8258 11.6988 24.9783C11.8097 25.0614 12.3919 25.9348 12.988 26.9051C15.7882 31.4659 19.0182 35.8325 20.8758 37.5376C22.2065 38.7575 24.175 38.7437 24.6879 37.496C25.1315 36.4563 24.4523 35.9573 23.4126 36.5672C23.0799 36.7613 22.7749 36.9277 22.7195 36.9277C22.5531 36.9277 21.2085 35.6939 20.3351 34.7097C19.1707 33.4343 17.424 31.1054 16.1625 29.1647C14.5822 26.7388 12.9187 23.8415 12.9187 23.5366C12.9187 23.1068 21.5689 14.5537 27.0584 9.54936C29.4427 7.37296 32.5479 4.66978 34.1698 3.38058C35.1956 2.56269 35.4174 2.13296 35.0293 1.71708C34.6273 1.27349 34.2114 1.38438 33.047 2.27158C29.72 4.76682 24.6741 9.38301 17.7567 16.2311C14.7347 19.2253 12.1563 21.679 12.0315 21.679C11.9068 21.679 11.8097 21.5681 11.8097 21.4156C11.8097 21.277 12.7108 19.3362 13.8059 17.0905C16.4536 11.6842 17.8537 8.28788 18.4082 5.90354C18.8103 4.19846 18.4914 2.28545 17.6735 1.55074C16.9388 0.871475 15.5249 0.71899 13.7089 1.10714Z" fill="black"/>
<path d="M73.6362 3.61623C72.4856 4.79454 68.9368 11.4485 64.9722 19.9046L64.1404 21.6513L62.4492 22.9127C59.2192 25.3387 55.6566 27.4319 53.1336 28.4023C51.5672 29.0122 50.8879 29.0677 50.4582 28.6379C49.474 27.6676 51.0265 23.3425 53.2861 20.7779C53.7852 20.2096 53.8406 20.0848 53.7297 19.766C53.5772 19.3501 53.0782 19.0451 52.69 19.1422C52.5514 19.1837 52.1078 19.6412 51.7058 20.168C51.0681 20.9997 50.7909 21.2215 49.3769 22.0255C45.8697 24.0356 38.7722 27.321 38.4949 27.0715C38.287 26.8635 38.8553 25.3803 40.2138 22.58C43.6101 15.5934 48.9749 7.17888 50.1948 6.94322C51.1374 6.74914 51.9969 5.51538 52.0108 4.33708C52.0108 3.28354 51.5256 3.10332 50.472 3.76872C48.7115 4.89157 43.2081 13.1952 40.1861 19.3224C39.5623 20.5839 38.9662 21.6928 38.8415 21.7899C38.1068 22.3998 34.7243 24.7703 33.241 25.6852C27.5436 29.2617 24.2859 29.9964 24.2859 27.723C24.2859 26.8219 24.48 26.4477 25.1454 26.0318C28.4308 23.9524 30.5656 22.2612 31.7439 20.8195C33.2549 18.9897 33.7262 17.3262 32.9222 16.6885C32.4093 16.2865 31.6191 16.3835 30.3022 17.0351C27.1138 18.6015 22.4838 25.1585 22.4838 28.125C22.4838 29.7746 23.7453 30.8559 25.4504 30.6341C27.9872 30.2876 33.1995 27.5705 37.2196 24.4931C37.6493 24.1604 38.0097 23.9108 38.0097 23.9386C38.0097 24.1604 36.1799 28.1389 35.9719 28.3607C35.8333 28.5132 35.3897 28.8597 34.9877 29.1092C34.5441 29.4004 34.1698 29.7608 34.0312 30.0658C33.8094 30.5371 33.8094 30.5648 34.1005 30.9391C34.9045 31.9372 34.9045 31.6322 34.0589 34.5988C32.5063 40.0883 31.9796 42.9162 32.0766 45.3006C32.1459 47.3661 32.7004 48.2255 33.7678 47.9622C34.3362 47.8235 35.4036 46.7561 36.3185 45.4115C39.2019 41.1834 40.4356 36.7474 39.5207 33.7948C39.2573 32.9491 39.1049 32.7273 38.1345 31.757C37.2473 30.8698 37.0393 30.5925 37.0393 30.246C37.0393 29.7053 37.7047 29.0538 38.6474 28.6934C39.6732 28.2914 46.6183 24.8951 48.2402 23.994C49.0165 23.5643 49.6819 23.2039 49.7096 23.2039C49.7512 23.2039 49.5571 23.6752 49.2937 24.2574C48.6145 25.713 48.2125 27.3626 48.3095 28.2914C48.5036 30.1489 49.876 30.9945 51.886 30.4955C53.6743 30.0519 57.6805 27.8339 61.2986 25.3109C62.1719 24.6871 62.9067 24.2019 62.9205 24.2297C62.9482 24.2435 62.6155 25.0476 62.1858 25.9902C61.2432 28.0973 59.6906 31.9926 59.5658 32.5749C59.4965 32.9491 59.5381 33.06 59.8569 33.3096C60.6609 33.9472 61.3541 33.6007 62.0472 32.2422C63.5859 29.1924 68.0912 23.4395 69.519 22.6909C70.1567 22.3721 70.226 22.58 69.9626 24.2435C69.5883 26.5724 69.8795 27.626 71.0578 28.1805C71.7925 28.5409 73.5391 28.5686 74.8699 28.2498C76.27 27.9171 78.6405 26.6833 80.3595 25.3941C81.9398 24.2019 84.4489 21.8731 84.4489 21.5819C84.4489 21.4156 84.0746 20.9859 83.9221 20.9859C83.8666 20.9859 83.0349 21.6374 82.0645 22.4276C81.108 23.2177 79.8188 24.1881 79.2227 24.5901C76.8523 26.1565 74.0659 27.1962 72.6797 27.0437C71.432 26.9051 71.1548 25.9902 71.6261 23.5227C71.9172 21.984 71.9034 20.8195 71.5845 20.5284C70.5587 19.5996 68.3269 21.3463 64.7504 25.8377C63.9602 26.8358 63.2948 27.5844 63.2671 27.5012C63.1007 27.0022 72.0004 8.34332 72.541 8.07994C72.6519 8.02449 72.9292 7.92745 73.151 7.872C73.5114 7.7611 73.6778 7.52544 74.357 6.15306C75.2997 4.22618 75.4244 3.75486 75.0917 3.38057C74.7036 2.95084 74.2184 3.03401 73.6362 3.61623ZM31.2171 18.6015C31.2171 19.0867 30.3299 20.2373 28.8744 21.6513C27.2941 23.19 25.9078 24.3128 25.589 24.3128C25.1592 24.3128 27.4465 21.277 28.8882 19.9323C30.4547 18.4906 31.2171 18.0609 31.2171 18.6015ZM37.275 33.2264C38.0652 34.0859 38.2177 34.6265 38.2038 36.5118C38.1899 37.9119 38.1483 38.2723 37.7463 39.4506C36.9562 41.8766 34.9323 45.5085 34.1421 45.9244C33.144 46.465 33.3658 43.1519 34.6827 37.7594C34.9877 36.4979 35.4452 34.8344 35.6808 34.0443C36.1937 32.3531 36.3878 32.256 37.275 33.2264Z" fill="black"/>
<path d="M56.2943 12.904C53.702 15.6627 55.0467 16.8826 57.7082 14.1933C58.2905 13.611 58.8172 12.9872 58.8727 12.807C59.0113 12.3634 58.6648 12.0862 57.8746 12.0169L57.1953 11.9475L56.2943 12.904Z" fill="black"/>
</svg>
